<?xml version="1.0" encoding="UTF-8"?><svg id="uuid-e2cabf83-b190-42f6-aa1a-39073cc0cee9" xmlns="http://www.w3.org/2000/svg" viewBox="0 0 41.24 50"><defs><style>.uuid-4e7dc18a-f88d-4164-a684-7669b60109e6{fill:#071d49;}</style></defs><g id="uuid-2786cb8b-2ea0-4e70-b043-737af59515b6"><g><polygon class="uuid-4e7dc18a-f88d-4164-a684-7669b60109e6" points="41.24 24.17 29 11.93 29 19 15 19 15 29 29 29 29 36.42 41.24 24.17"/><path class="uuid-4e7dc18a-f88d-4164-a684-7669b60109e6" d="M34,41v3.41c0,.77-.56,1.59-1.33,1.59H5.75c-.78,0-1.75-.81-1.75-1.59V4.59c0-.78,.97-1.59,1.75-1.59h26.92c.78,0,1.33,.81,1.33,1.59v3.41l4,4V4.59c0-2.8-2.53-4.59-5.33-4.59H4.75C1.94,0,0,1.78,0,4.59V44.41c0,2.81,1.94,5.59,4.75,5.59h27.92c2.81,0,5.33-2.78,5.33-5.59v-7.41l-4,4Z"/></g></g></svg>