<?xml version="1.0" encoding="UTF-8"?><svg id="uuid-654ecbe3-242b-4eb2-ad1c-bd6c4516604d" xmlns="http://www.w3.org/2000/svg" viewBox="0 0 41.24 50"><defs><style>.uuid-e47b17d7-ef14-4f46-b97b-d3663c8f926f{fill:#e0004d;}</style></defs><g id="uuid-662763b0-7bfd-4960-978d-40293c1e7c4a"><g><polygon class="uuid-e47b17d7-ef14-4f46-b97b-d3663c8f926f" points="41.24 24.17 29 11.93 29 19 15 19 15 29 29 29 29 36.42 41.24 24.17"/><path class="uuid-e47b17d7-ef14-4f46-b97b-d3663c8f926f" d="M34,41v3.41c0,.77-.56,1.59-1.33,1.59H5.75c-.78,0-1.75-.81-1.75-1.59V4.59c0-.78,.97-1.59,1.75-1.59h26.92c.78,0,1.33,.81,1.33,1.59v3.41l4,4V4.59c0-2.8-2.53-4.59-5.33-4.59H4.75C1.94,0,0,1.78,0,4.59V44.41c0,2.81,1.94,5.59,4.75,5.59h27.92c2.81,0,5.33-2.78,5.33-5.59v-7.41l-4,4Z"/></g></g></svg>