<?xml version="1.0" encoding="UTF-8"?><svg id="uuid-0101f598-17b0-457a-8d45-27f03a34d24b" xmlns="http://www.w3.org/2000/svg" viewBox="0 0 46.3 50"><defs><style>.uuid-7f90f570-e89d-4456-903c-a20643e3011d{fill:#e0004d;}</style></defs><g id="uuid-11e621a4-674f-4475-8d9e-1366c35e2941"><g><path class="uuid-7f90f570-e89d-4456-903c-a20643e3011d" d="M36.61,18.36V0H9.61V18.36c0,.32,.1,.63,.1,.95,0,7.4,6.07,13.4,13.47,13.4s13.43-6,13.43-13.4c0-.32,0-.64,0-.95Z"/><rect class="uuid-7f90f570-e89d-4456-903c-a20643e3011d" x="19.61" y="32" width="7" height="9"/><path class="uuid-7f90f570-e89d-4456-903c-a20643e3011d" d="M9.17,40h26.86c1.42,0,2.57,1.15,2.57,2.57v4.86c0,1.42-1.15,2.57-2.57,2.57H9.18c-1.42,0-2.57-1.15-2.57-2.57v-4.86c0-1.42,1.15-2.57,2.57-2.57Z"/><path class="uuid-7f90f570-e89d-4456-903c-a20643e3011d" d="M13.23,25.26c-.19,0-.38-.03-.56-.1C11.38,24.67,.04,20.2,0,13.32c-.03-4.91,2.62-5.96,2.93-6.04,.13-.03,.26-.28,.4-.28H11.48c.88,0,1.58,.62,1.58,1.5s-.71,1.5-1.58,1.5H3.76c-.24,1-.6,1.37-.59,2.98,.02,3.99,7.87,8.01,10.62,9.05,.82,.31,1.23,1.3,.92,2.12-.24,.64-.84,1.11-1.48,1.11Z"/><path class="uuid-7f90f570-e89d-4456-903c-a20643e3011d" d="M33.06,25.26c-.64,0-1.24-.39-1.48-1.03-.31-.82,.1-1.73,.92-2.04,2.75-1.04,10.6-4.9,10.63-8.89,.01-1.67-.38-2.7-.55-2.92-.02-.02-.03-.38-.05-.38h-7.73c-.88,0-1.59-.62-1.59-1.5s.71-1.5,1.59-1.5h8.17c.13,0,.27,.25,.4,.28,.3,.08,2.96,1.02,2.93,5.93-.04,6.88-11.39,11.41-12.68,11.89-.18,.07-.37,.16-.56,.16Zm9.75-14.63c.07,0,.15,0,.22,0-.02,0-.04,0-.06,0h-.17Z"/></g></g></svg>